<svg id="Layer_1" xmlns="http://www.w3.org/2000/svg" viewBox="0 0 18.6 18.6"><style>.st0{fill:#373737}</style><path class="st0" d="M9.3 0C4.2 0 0 4.2 0 9.3c0 5.1 4.2 9.3 9.3 9.3s9.3-4.2 9.3-9.3c0-5.1-4.2-9.3-9.3-9.3zm0 18.1C4.5 18.1.5 14.2.5 9.3.5 4.5 4.4.5 9.3.5c4.8 0 8.8 3.9 8.8 8.8 0 4.8-4 8.8-8.8 8.8z"/><path class="st0" d="M5.6 7.7h1.7v5.5H5.6zM6.4 5c-.6 0-1 .5-1 1 0 .6.4 1 1 1s1-.5 1-1c0-.6-.4-1-1-1zm5.2 2.5c-1.2 0-1.6.9-1.6.9v-.7H8.4v5.5H10v-2.9c0-.8.4-1.2 1-1.2s.9.4.9 1.2v2.9h1.7V9.7c0-1.5-.8-2.2-2-2.2z"/></svg>